<svg width="276" height="272" viewBox="0 0 276 272" fill="none" xmlns="http://www.w3.org/2000/svg">
<circle cx="135.621" cy="137.19" r="60.6724" fill="#FA8B74"/>
<circle cx="254.586" cy="21.7931" r="21.4138" fill="#010101"/>
<path d="M271.241 136C271.241 153.81 267.733 171.446 260.918 187.9C254.102 204.354 244.113 219.305 231.519 231.898C218.925 244.492 203.975 254.482 187.52 261.297C171.066 268.113 153.431 271.621 135.621 271.621L135.621 239.617C149.228 239.617 162.702 236.937 175.273 231.73C187.845 226.522 199.267 218.89 208.889 209.268C218.511 199.647 226.143 188.224 231.35 175.652C236.558 163.081 239.238 149.607 239.238 136H271.241Z" fill="#010101"/>
</svg>
